<svg width="43" height="43" viewBox="0 0 43 43" fill="none" xmlns="http://www.w3.org/2000/svg">
<g clip-path="url(#clip0_2925_3511)">
<path d="M21.5793 42.6199C16.1925 42.6199 11.028 40.6603 7.03951 37.0988C6.68991 36.7878 6.65813 36.2434 6.97594 35.9013C7.29375 35.5591 7.84992 35.528 8.19951 35.8391C11.8702 39.1051 16.6215 40.9091 21.5793 40.9091C26.8868 40.9091 31.8764 38.8873 35.6266 35.217C39.3767 31.5467 41.4425 26.6632 41.4425 21.4688C41.4425 16.2743 39.3767 11.3909 35.6266 7.72056C31.8764 4.05022 26.8868 2.02842 21.5793 2.02842C16.2719 2.02842 11.2823 4.05022 7.53211 7.72056C3.78195 11.3909 1.71618 16.2743 1.71618 21.4688C1.71618 23.1484 1.93864 24.8281 2.36769 26.4455V26.4766C2.82851 28.1252 4.3699 29.7581 6.05429 29.5404C7.26197 29.3849 8.19951 28.2651 8.86692 26.1811C9.43898 24.3771 9.8998 21.9664 10.3447 19.6181C10.7261 17.5807 11.1393 15.4967 11.6001 13.8326C11.8702 12.8528 12.1563 12.0908 12.4423 11.5464C12.633 11.2043 12.9826 10.9865 13.3957 10.9865C13.793 10.9865 14.1585 11.2043 14.3492 11.5464C14.6352 12.0908 14.9212 12.8528 15.1913 13.8326C15.6522 15.4967 16.0653 17.5807 16.4467 19.6181C16.8916 21.9509 17.3525 24.3771 17.9404 26.1811C18.2264 27.0987 19.0051 29.5249 20.6418 29.5249C22.2785 29.5249 23.0572 27.0832 23.3432 26.1811C23.9152 24.3771 24.3761 21.9664 24.8369 19.6181C25.2342 17.5807 25.6314 15.4811 26.0923 13.8326C26.3624 12.8528 26.6484 12.0908 26.9345 11.5464C27.1251 11.2043 27.4747 10.9865 27.8879 10.9865C28.2851 10.9865 28.6506 11.2043 28.8413 11.5464C29.1273 12.0752 29.4134 12.8528 29.6835 13.8326L29.6994 13.8793L30.7959 19.0737C30.8912 19.5714 30.9865 20.0691 31.0819 20.5512C31.1772 21.0022 30.8594 21.4532 30.3986 21.5465C29.9378 21.6399 29.4769 21.3288 29.3816 20.8778C29.2862 20.3801 29.1909 19.8824 29.0956 19.4003L27.9991 14.2525C27.9514 14.097 27.9197 13.9726 27.872 13.8326C27.8243 13.9726 27.7925 14.1125 27.7449 14.2836C27.2999 15.87 26.9027 17.9229 26.5213 19.9135C26.0605 22.3086 25.5838 24.7814 24.9799 26.6788C24.6144 27.7986 23.5339 31.2201 20.6259 31.2201C17.7179 31.2201 16.6374 27.8141 16.2719 26.6788C15.6681 24.7814 15.1913 22.3086 14.7305 19.9291C14.3491 17.9384 13.9519 15.87 13.507 14.2836C13.4593 14.1281 13.4116 13.9726 13.3798 13.8326C13.3322 13.9726 13.3004 14.1125 13.2527 14.2836C12.8078 15.87 12.4105 17.9384 12.0291 19.9291C11.5683 22.3242 11.0916 24.7814 10.4878 26.6788C9.61377 29.4471 8.18362 30.9557 6.24498 31.2045C3.65482 31.5778 1.38248 29.3227 0.730964 26.9432L0.715074 26.8965C0.238358 25.1391 0 23.3195 0 21.4999C0 15.8544 2.24056 10.5511 6.32443 6.56969C10.3924 2.57275 15.8111 0.379883 21.5793 0.379883C27.3476 0.379883 32.7663 2.57275 36.8343 6.56969C40.9022 10.5511 43.1587 15.87 43.1587 21.4999C43.1587 27.1298 40.9181 32.4487 36.8343 36.4301C32.7663 40.427 27.3476 42.6199 21.5793 42.6199Z" fill="#362C86"/>
<path d="M32.1781 25.5126C30.9863 25.5126 30.0328 26.4613 30.0328 27.6121C30.0328 28.7786 31.0022 29.7117 32.1781 29.7117C33.3699 29.7117 34.3233 28.763 34.3233 27.6121C34.3233 26.4457 33.354 25.5126 32.1781 25.5126ZM32.1781 31.4069C30.0487 31.4069 28.3008 29.7117 28.3008 27.6121C28.3008 25.5281 30.0328 23.8174 32.1781 23.8174C34.3233 23.8174 36.0554 25.5126 36.0554 27.6121C36.0554 29.6961 34.3074 31.4069 32.1781 31.4069Z" fill="#362C86"/>
</g>
<defs>
<clipPath id="clip0_2925_3511">
<rect width="42.8571" height="42" fill="white" transform="translate(0 0.5)"/>
</clipPath>
</defs>
</svg>
