<svg width="32" height="32" viewBox="0 0 32 32" fill="none" xmlns="http://www.w3.org/2000/svg">
<g clip-path="url(#clip0_884_8351)">
<path d="M16 32C12.0059 32 8.17673 30.5155 5.21944 27.8174C4.96024 27.5817 4.93667 27.1694 5.17231 26.9102C5.40795 26.651 5.82032 26.6274 6.07953 26.863C8.80118 29.3373 12.324 30.704 16 30.704C19.9352 30.704 23.6348 29.1723 26.4153 26.3918C29.1959 23.6112 30.7275 19.9116 30.7275 15.9764C30.7275 12.0412 29.1959 8.34168 26.4153 5.56112C23.6348 2.78056 19.9352 1.2489 16 1.2489C12.0648 1.2489 8.36524 2.78056 5.58468 5.56112C2.80412 8.34168 1.27246 12.0412 1.27246 15.9764C1.27246 17.2489 1.43741 18.5214 1.75552 19.7467V19.7703C2.0972 21.0191 3.24006 22.2563 4.48895 22.0913C5.38439 21.9735 6.07953 21.1252 6.57437 19.5464C6.99853 18.1797 7.34021 16.3535 7.6701 14.5744C7.95287 13.0309 8.2592 11.4521 8.60088 10.1915C8.80118 9.44919 9.01326 8.87187 9.22533 8.4595C9.36672 8.20029 9.62592 8.03535 9.93225 8.03535C10.2268 8.03535 10.4978 8.20029 10.6392 8.4595C10.8513 8.87187 11.0633 9.44919 11.2636 10.1915C11.6053 11.4521 11.9116 13.0309 12.1944 14.5744C12.5243 16.3417 12.866 18.1797 13.3019 19.5464C13.514 20.2415 14.0913 22.0795 15.3049 22.0795C16.5184 22.0795 17.0957 20.2297 17.3078 19.5464C17.732 18.1797 18.0736 16.3535 18.4153 14.5744C18.7099 13.0309 19.0044 11.4404 19.3461 10.1915C19.5464 9.44919 19.7585 8.87187 19.9705 8.4595C20.1119 8.20029 20.3711 8.03535 20.6775 8.03535C20.972 8.03535 21.243 8.20029 21.3844 8.4595C21.5965 8.86009 21.8085 9.44919 22.0088 10.1915L22.0206 10.2268L22.8336 14.162C22.9043 14.539 22.975 14.9161 23.0457 15.2813C23.1163 15.623 22.8807 15.9647 22.539 16.0353C22.1973 16.106 21.8557 15.8704 21.785 15.5287C21.7143 15.1517 21.6436 14.7747 21.5729 14.4094L20.7599 10.5096C20.7246 10.3918 20.701 10.2975 20.6657 10.1915C20.6303 10.2975 20.6068 10.4035 20.5714 10.5331C20.2415 11.7349 19.947 13.2901 19.6642 14.7982C19.3225 16.6127 18.9691 18.486 18.5214 19.9234C18.2504 20.7717 17.4492 23.3638 15.2931 23.3638C13.137 23.3638 12.3358 20.7835 12.0648 19.9234C11.6171 18.486 11.2636 16.6127 10.9219 14.81C10.6392 13.3019 10.3446 11.7349 10.0147 10.5331C9.97938 10.4153 9.94403 10.2975 9.92047 10.1915C9.88513 10.2975 9.86156 10.4035 9.82621 10.5331C9.49632 11.7349 9.20177 13.3019 8.919 14.81C8.57732 16.6244 8.22386 18.486 7.77614 19.9234C7.12813 22.0206 6.06775 23.1635 4.63034 23.352C2.70987 23.6348 1.02504 21.9264 0.541973 20.1237L0.530191 20.0884C0.17673 18.757 0 17.3785 0 16C0 11.7231 1.66127 7.70545 4.68925 4.68925C7.70545 1.66127 11.7231 0 16 0C20.2769 0 24.2945 1.66127 27.3108 4.68925C30.327 7.70545 32 11.7349 32 16C32 20.2651 30.3387 24.2945 27.3108 27.3108C24.2945 30.3387 20.2769 32 16 32Z" fill="white"/>
<path d="M23.8586 19.0398C22.975 19.0398 22.268 19.7585 22.268 20.6303C22.268 21.514 22.9867 22.2209 23.8586 22.2209C24.7423 22.2209 25.4492 21.5022 25.4492 20.6303C25.4492 19.7467 24.7305 19.0398 23.8586 19.0398ZM23.8586 23.5052C22.2798 23.5052 20.9838 22.2209 20.9838 20.6303C20.9838 19.0515 22.268 17.7555 23.8586 17.7555C25.4492 17.7555 26.7334 19.0398 26.7334 20.6303C26.7334 22.2091 25.4374 23.5052 23.8586 23.5052Z" fill="white"/>
</g>
<defs>
<clipPath id="clip0_884_8351">
<rect width="32" height="32" fill="white"/>
</clipPath>
</defs>
</svg>
