<svg xmlns="http://www.w3.org/2000/svg" width="34" height="22" viewBox="0 0 34 22" fill="none">
<path d="M32.0977 9H1.91016C0.926399 9 0.128906 9.85066 0.128906 10.9V11.1C0.128906 12.1493 0.926399 13 1.91016 13H32.0977C33.0814 13 33.8789 12.1493 33.8789 11.1V10.9C33.8789 9.85066 33.0814 9 32.0977 9Z" fill="#004687"/>
<path d="M32.0977 18H1.91016C0.926399 18 0.128906 18.8507 0.128906 19.9V20.1C0.128906 21.1493 0.926399 22 1.91016 22H32.0977C33.0814 22 33.8789 21.1493 33.8789 20.1V19.9C33.8789 18.8507 33.0814 18 32.0977 18Z" fill="#004687"/>
<path d="M32.0977 0H1.91016C0.926399 0 0.128906 0.850659 0.128906 1.9V2.1C0.128906 3.14934 0.926399 4 1.91016 4H32.0977C33.0814 4 33.8789 3.14934 33.8789 2.1V1.9C33.8789 0.850659 33.0814 0 32.0977 0Z" fill="#004687"/>
</svg>